<svg xmlns="http://www.w3.org/2000/svg" xmlns:xlink="http://www.w3.org/1999/xlink" width="500" zoomAndPan="magnify" viewBox="0 0 375 374.999991" height="500" preserveAspectRatio="xMidYMid meet" version="1.0"><defs><g/><clipPath id="d3e12e3eb1"><path d="M 352 157 L 366 157 L 366 175 L 352 175 Z M 352 157 " clip-rule="nonzero"/></clipPath><clipPath id="894fd52152"><path d="M 354.011719 156.5625 L 366.003906 160.898438 L 360.136719 177.117188 L 348.144531 172.78125 Z M 354.011719 156.5625 " clip-rule="nonzero"/></clipPath><clipPath id="7efb033b50"><path d="M 354.011719 156.5625 L 366.003906 160.898438 L 360.136719 177.117188 L 348.144531 172.78125 Z M 354.011719 156.5625 " clip-rule="nonzero"/></clipPath><clipPath id="6343588524"><path d="M 312 141 L 326 141 L 326 159 L 312 159 Z M 312 141 " clip-rule="nonzero"/></clipPath><clipPath id="ed6af7b2ea"><path d="M 312.042969 142.925781 L 324.554688 140.472656 L 327.871094 157.402344 L 315.359375 159.851562 Z M 312.042969 142.925781 " clip-rule="nonzero"/></clipPath><clipPath id="bf1ae8a80a"><path d="M 312.042969 142.925781 L 324.554688 140.472656 L 327.871094 157.402344 L 315.359375 159.851562 Z M 312.042969 142.925781 " clip-rule="nonzero"/></clipPath><clipPath id="e1684ddcba"><path d="M 271 160 L 285 160 L 285 177 L 271 177 Z M 271 160 " clip-rule="nonzero"/></clipPath><clipPath id="51327bc1c5"><path d="M 270.859375 164.617188 L 282.203125 158.789062 L 290.082031 174.132812 L 278.742188 179.960938 Z M 270.859375 164.617188 " clip-rule="nonzero"/></clipPath><clipPath id="3a8aaf21e3"><path d="M 270.859375 164.617188 L 282.203125 158.789062 L 290.082031 174.132812 L 278.742188 179.960938 Z M 270.859375 164.617188 " clip-rule="nonzero"/></clipPath></defs><g fill="#ff862e" fill-opacity="1"><g transform="translate(9.599046, 252.066363)"><g><path d="M 41.796875 -56.03125 C 50.285156 -55.21875 56.304688 -51.320312 59.859375 -44.34375 C 63.410156 -37.375 64.910156 -30.820312 64.359375 -24.6875 C 63.566406 -15.957031 60.867188 -8.796875 56.265625 -3.203125 C 51.671875 2.390625 45.71875 4.851562 38.40625 4.1875 C 33.644531 3.757812 31.257812 3.570312 31.25 3.625 L 30.203125 15.296875 C 27.054688 19.035156 23.269531 20.707031 18.84375 20.3125 C 16.007812 20.050781 12.117188 18.367188 7.171875 15.265625 L 13.109375 -50.234375 C 13.804688 -55.722656 17.6875 -58.148438 24.75 -57.515625 Z M 43.625 -26.5625 C 44.007812 -30.851562 43.890625 -33.878906 43.265625 -35.640625 C 42.640625 -37.410156 41.34375 -38.4375 39.375 -38.71875 L 32.9375 -39.296875 L 31.875 -27.5625 C 31.40625 -22.375 31.773438 -18.59375 32.984375 -16.21875 C 34.191406 -13.851562 35.53125 -12.609375 37 -12.484375 C 38.175781 -12.367188 39.410156 -12.894531 40.703125 -14.0625 C 41.992188 -15.226562 42.96875 -19.394531 43.625 -26.5625 Z M 43.625 -26.5625 "/></g></g></g><g fill="#ff862e" fill-opacity="1"><g transform="translate(89.757888, 258.837048)"><g><path d="M 40.96875 -40.921875 C 40.175781 -42.597656 38.691406 -43.484375 36.515625 -43.578125 C 34.859375 -43.648438 33.632812 -42.585938 32.84375 -40.390625 C 32.050781 -38.203125 31.59375 -35.691406 31.46875 -32.859375 L 30.109375 -2.34375 C 24.191406 0.65625 19.863281 2.09375 17.125 1.96875 C 12.25 1.75 8.992188 -0.71875 7.359375 -5.4375 L 9.59375 -55.234375 C 13.976562 -57.921875 17.375 -59.210938 19.78125 -59.109375 C 22.101562 -59.003906 24.035156 -58.65625 25.578125 -58.0625 L 25.3125 -52.25 C 28.625 -56.414062 32.742188 -58.382812 37.671875 -58.15625 C 43.148438 -57.914062 48.4375 -55.429688 53.53125 -50.703125 C 52.113281 -42.222656 49.109375 -38.085938 44.515625 -38.296875 C 42.953125 -38.367188 41.769531 -39.242188 40.96875 -40.921875 Z M 40.96875 -40.921875 "/></g></g></g><g fill="#ff862e" fill-opacity="1"><g transform="translate(157.041537, 261.631149)"><g><path d="M 55.421875 -59.765625 L 55.390625 -4.375 C 50.890625 -1.53125 47.625 -0.0195312 45.59375 0.15625 C 41.519531 0.15625 38.820312 -1.40625 37.5 -4.53125 L 35.5 -2.109375 C 34.082031 -0.453125 30.507812 0.375 24.78125 0.375 C 16.351562 0.363281 10.566406 -3.082031 7.421875 -9.96875 C 4.285156 -16.863281 2.71875 -23.601562 2.71875 -30.1875 C 2.757812 -37.238281 4.945312 -43.863281 9.28125 -50.0625 C 13.625 -56.257812 19.300781 -59.546875 26.3125 -59.921875 Z M 22.25 -30.171875 C 22.25 -26.097656 22.875 -22.78125 24.125 -20.21875 C 25.375 -17.664062 26.710938 -16.390625 28.140625 -16.390625 C 30.035156 -16.429688 31.878906 -17.222656 33.671875 -18.765625 C 35.472656 -20.304688 36.375 -22.992188 36.375 -26.828125 L 36.375 -42.875 L 29.984375 -42.875 C 28.847656 -42.832031 27.273438 -41.660156 25.265625 -39.359375 C 23.253906 -37.066406 22.25 -34.003906 22.25 -30.171875 Z M 22.25 -30.171875 "/></g></g></g><g fill="#ff862e" fill-opacity="1"><g transform="translate(233.750706, 261.149609)"><g><path d="M 8.828125 -43.703125 L 3.3125 -43.484375 C 0.738281 -47.359375 -0.585938 -50.335938 -0.671875 -52.421875 C -0.679688 -55.023438 1.179688 -57 4.921875 -58.34375 L 8.234375 -58.46875 L 7.890625 -67.203125 C 12.585938 -68.367188 15.8125 -69.015625 17.5625 -69.140625 C 20.351562 -69.253906 22.910156 -68.125 25.234375 -65.75 L 25.5 -59.15625 L 32.796875 -59.453125 C 34.609375 -55.628906 35.546875 -52.984375 35.609375 -51.515625 C 35.710938 -48.921875 34.257812 -46.617188 31.25 -44.609375 L 26.09375 -44.390625 L 27.125 -18.78125 C 27.164062 -17.644531 29.582031 -16.9375 34.375 -16.65625 L 35.875 -14.578125 C 36.976562 -11.972656 37.570312 -9.628906 37.65625 -7.546875 C 37.644531 -5.273438 36.0625 -3.316406 32.90625 -1.671875 L 27.875 -1.46875 C 21.0625 -1.195312 16.390625 -3.035156 13.859375 -6.984375 C 11.328125 -10.929688 9.992188 -14.65625 9.859375 -18.15625 Z M 8.828125 -43.703125 "/></g></g></g><path fill="#ff862e" d="M 363.46875 205.234375 C 361.113281 201.707031 358.144531 198.539062 354.699219 195.886719 C 343.480469 187.261719 329.121094 185.347656 315.652344 189.167969 C 298.726562 193.96875 285.375 208.164062 287.167969 226.460938 C 288.804688 243.179688 301.894531 256.390625 318.4375 258.808594 C 329.441406 260.417969 340.824219 259.53125 350.777344 254.226562 C 359.324219 249.664062 366.527344 241.46875 368.710938 231.925781 C 370.871094 222.46875 368.648438 212.988281 363.46875 205.234375 Z M 363.46875 205.234375 " fill-opacity="1" fill-rule="nonzero"/><path fill="#005c36" d="M 336.617188 170.480469 C 335.832031 169.914062 334.894531 170.070312 334.257812 170.757812 C 333.070312 172.035156 332.09375 173.558594 331.179688 175.039062 C 330.1875 176.640625 329.292969 178.300781 328.519531 180.019531 C 328.140625 180.855469 327.789062 181.707031 327.460938 182.566406 C 327.359375 182.3125 327.253906 182.054688 327.140625 181.800781 C 325.003906 176.945312 321.09375 172.632812 316.550781 170.199219 C 313.914062 168.785156 310.996094 167.902344 308.019531 167.582031 C 305.496094 167.316406 301.355469 166.761719 300.40625 169.851562 C 300.058594 170.972656 300.332031 172.214844 300.722656 173.292969 C 301.242188 174.734375 301.945312 176.121094 302.714844 177.441406 C 305.191406 181.6875 307.632812 185.859375 311.859375 188.675781 C 314.496094 190.433594 317.519531 191.601562 320.652344 192.105469 C 321.871094 192.304688 323.457031 192.589844 324.9375 192.503906 C 324.765625 193.789062 324.648438 195.078125 324.59375 196.375 C 324.550781 197.300781 325.089844 198.285156 326.113281 198.382812 C 327.003906 198.464844 328.09375 197.863281 328.132812 196.867188 C 328.210938 195.140625 328.382812 193.417969 328.667969 191.710938 C 328.804688 190.875 328.96875 190.039062 329.15625 189.210938 C 329.25 188.808594 329.34375 188.410156 329.449219 188.015625 C 329.5 187.804688 329.558594 187.597656 329.613281 187.386719 C 329.574219 187.539062 329.722656 187.015625 329.742188 186.949219 C 330.71875 183.652344 332.097656 180.503906 333.800781 177.515625 C 333.933594 177.285156 334.0625 177.058594 334.199219 176.832031 C 334.199219 176.832031 334.234375 176.773438 334.261719 176.726562 C 334.304688 176.65625 334.421875 176.464844 334.417969 176.472656 C 334.664062 176.070312 334.917969 175.675781 335.179688 175.285156 C 335.734375 174.453125 336.347656 173.664062 336.898438 172.832031 C 337.378906 172.101562 337.398438 171.039062 336.617188 170.480469 Z M 336.617188 170.480469 " fill-opacity="1" fill-rule="nonzero"/><path fill="#f77014" d="M 330.566406 195.148438 C 330.191406 195.203125 329.832031 195.382812 329.46875 195.5 C 329.101562 195.617188 328.730469 195.710938 328.351562 195.785156 C 328.292969 195.796875 328.050781 195.832031 328.027344 195.839844 C 327.914062 195.851562 327.800781 195.863281 327.691406 195.871094 C 327.304688 195.898438 326.917969 195.910156 326.53125 195.90625 C 326.367188 195.902344 326.203125 195.898438 326.035156 195.886719 C 326 195.886719 325.765625 195.867188 325.644531 195.855469 C 325.566406 195.839844 325.25 195.792969 325.207031 195.785156 C 325.042969 195.753906 324.882812 195.71875 324.722656 195.679688 C 324.347656 195.585938 323.980469 195.46875 323.617188 195.347656 C 323.460938 195.292969 323.308594 195.238281 323.152344 195.183594 C 323.113281 195.167969 323.082031 195.15625 323.054688 195.144531 C 322.96875 195.109375 322.886719 195.070312 322.800781 195.027344 C 322.015625 194.65625 320.964844 194.785156 320.519531 195.625 C 320.078125 196.453125 320.335938 197.386719 321.117188 197.894531 C 322.738281 198.949219 324.609375 199.453125 326.535156 199.546875 C 327.464844 199.59375 328.414062 199.476562 329.320312 199.28125 C 330.34375 199.066406 331.464844 198.730469 332.253906 198.03125 C 332.800781 197.542969 332.921875 196.554688 332.523438 195.941406 C 332.070312 195.242188 331.367188 195.039062 330.566406 195.148438 Z M 330.566406 195.148438 " fill-opacity="1" fill-rule="nonzero"/><path fill="#f77014" d="M 310.179688 228.476562 C 308.234375 227.34375 305.539062 227.707031 304.34375 229.710938 C 303.851562 230.535156 304.046875 231.714844 304.789062 232.324219 C 305.652344 233.53125 307.539062 234.027344 309.042969 233.691406 C 310.132812 233.445312 311.183594 232.71875 311.523438 231.617188 C 311.902344 230.375 311.273438 229.113281 310.179688 228.476562 Z M 310.179688 228.476562 " fill-opacity="1" fill-rule="nonzero"/><path fill="#f77014" d="M 352.429688 230.761719 C 351.730469 229.492188 350.210938 229.238281 348.878906 229.3125 C 347.460938 229.390625 346.082031 230.050781 345.613281 231.484375 C 345.160156 232.863281 345.765625 234.34375 347.019531 235.066406 C 347.339844 235.253906 347.707031 235.363281 348.085938 235.402344 C 348.121094 235.417969 348.15625 235.429688 348.191406 235.445312 C 349.378906 235.867188 350.824219 235.667969 351.773438 234.816406 C 352.835938 233.867188 353.117188 232.015625 352.429688 230.761719 Z M 352.429688 230.761719 " fill-opacity="1" fill-rule="nonzero"/><path fill="#ffffff" d="M 316.027344 173.277344 C 314.980469 171.773438 313.332031 170.664062 311.519531 170.335938 C 310.632812 170.175781 310.105469 171.285156 310.898438 171.800781 C 312.226562 172.667969 313.488281 173.585938 314.746094 174.550781 C 315.488281 175.121094 316.542969 174.011719 316.027344 173.273438 Z M 316.027344 173.277344 " fill-opacity="0.33" fill-rule="nonzero"/><path fill="#ffffff" d="M 318.269531 175.332031 C 318.234375 175.1875 318.167969 175.0625 318.070312 174.953125 C 317.988281 174.832031 317.886719 174.738281 317.757812 174.667969 C 317.628906 174.589844 317.488281 174.542969 317.34375 174.539062 C 317.195312 174.503906 317.046875 174.511719 316.898438 174.558594 C 316.628906 174.644531 316.371094 174.8125 316.234375 175.066406 C 316.195312 175.15625 316.15625 175.242188 316.121094 175.332031 C 316.066406 175.527344 316.066406 175.722656 316.121094 175.921875 C 316.128906 175.976562 316.140625 176.035156 316.152344 176.089844 C 316.207031 176.28125 316.300781 176.445312 316.441406 176.582031 C 316.582031 176.722656 316.746094 176.820312 316.9375 176.871094 C 316.941406 176.871094 316.945312 176.875 316.949219 176.875 C 317.324219 176.980469 317.753906 176.871094 318.023438 176.589844 C 318.027344 176.589844 318.03125 176.585938 318.035156 176.582031 C 318.171875 176.441406 318.269531 176.277344 318.324219 176.089844 C 318.378906 175.890625 318.378906 175.691406 318.324219 175.492188 L 318.265625 175.332031 Z M 318.269531 175.332031 " fill-opacity="0.33" fill-rule="nonzero"/><path fill="#ffffff" d="M 353.894531 209.53125 C 354.027344 208.707031 354.035156 207.902344 353.945312 207.074219 C 353.878906 206.464844 353.503906 205.929688 352.894531 205.824219 C 352.847656 205.804688 352.796875 205.785156 352.742188 205.773438 C 352.136719 205.605469 351.566406 205.976562 351.375 206.546875 C 350.941406 207.84375 350.058594 210.582031 351.960938 211.117188 C 353.050781 211.425781 353.746094 210.460938 353.894531 209.535156 Z M 353.894531 209.53125 " fill-opacity="0.33" fill-rule="nonzero"/><path fill="#ffffff" d="M 354.523438 212.484375 C 354.375 212.335938 354.132812 212.226562 353.921875 212.238281 C 353.703125 212.246094 353.476562 212.320312 353.324219 212.484375 C 353.175781 212.644531 353.058594 212.859375 353.074219 213.082031 C 353.09375 213.359375 353.078125 213.675781 353.230469 213.914062 C 353.554688 214.429688 354.292969 214.429688 354.617188 213.914062 C 354.765625 213.675781 354.753906 213.355469 354.773438 213.082031 C 354.789062 212.875 354.667969 212.628906 354.523438 212.484375 Z M 354.523438 212.484375 " fill-opacity="0.33" fill-rule="nonzero"/><path fill="#ffffff" d="M 293.472656 227.25 C 293.257812 226.804688 292.804688 226.703125 292.40625 226.820312 C 292.21875 226.847656 292.046875 226.945312 291.917969 227.113281 C 291.734375 227.300781 291.628906 227.550781 291.671875 227.835938 C 291.523438 228.558594 291.511719 229.285156 291.625 230.019531 C 291.75 230.824219 292.121094 231.871094 293.105469 231.871094 C 294.199219 231.871094 294.332031 230.621094 294.242188 229.808594 C 294.148438 228.921875 293.863281 228.050781 293.472656 227.25 Z M 293.472656 227.25 " fill-opacity="0.33" fill-rule="nonzero"/><path fill="#ffffff" d="M 292.679688 225.972656 C 293.210938 226.042969 293.636719 225.648438 293.660156 225.128906 C 293.671875 224.914062 293.679688 224.703125 293.691406 224.488281 C 293.710938 224.082031 293.363281 223.738281 292.980469 223.6875 C 292.605469 223.636719 292.152344 223.871094 292.078125 224.269531 C 292.039062 224.480469 292 224.691406 291.964844 224.898438 C 291.921875 225.140625 291.9375 225.347656 292.050781 225.5625 C 292.175781 225.800781 292.425781 225.9375 292.679688 225.972656 Z M 292.679688 225.972656 " fill-opacity="0.33" fill-rule="nonzero"/><path fill="#000000" d="M 332.234375 223.003906 C 331.507812 224.210938 330.125 225.023438 328.699219 225.003906 C 327.273438 224.984375 325.902344 224.082031 325.175781 222.886719 C 324.664062 222.046875 323.503906 222.777344 323.882812 223.636719 C 324.714844 225.519531 326.648438 226.714844 328.699219 226.773438 C 330.769531 226.832031 332.734375 225.664062 333.726562 223.871094 C 334.265625 222.902344 332.804688 222.050781 332.234375 223.003906 Z M 332.234375 223.003906 " fill-opacity="1" fill-rule="nonzero"/><path fill="#000000" d="M 318.324219 219.300781 C 317.484375 218.613281 316.4375 218.273438 315.355469 218.4375 C 313.269531 218.75 311.949219 220.929688 312.460938 222.921875 C 312.59375 223.433594 313.164062 223.742188 313.667969 223.605469 C 314.230469 223.449219 314.433594 222.925781 314.355469 222.402344 C 314.230469 221.566406 315.066406 220.625 315.78125 220.5625 C 316.214844 220.523438 316.648438 220.695312 316.992188 221.007812 C 317.445312 221.421875 317.457031 221.996094 317.851562 222.476562 C 318.386719 223.125 319.261719 222.648438 319.519531 222.039062 C 319.910156 221.109375 319.011719 219.863281 318.324219 219.300781 Z M 318.324219 219.300781 " fill-opacity="1" fill-rule="nonzero"/><path fill="#000000" d="M 341.25 218.808594 C 339.417969 218.621094 337.65625 219.921875 337.277344 221.707031 C 337.050781 222.78125 338.542969 223.175781 338.917969 222.15625 C 339.21875 221.335938 340.238281 220.699219 341.113281 220.835938 C 342.015625 220.976562 342.605469 221.875 342.636719 222.714844 C 342.6875 224.082031 344.726562 224.085938 344.773438 222.714844 C 344.839844 220.746094 343.1875 219.003906 341.25 218.808594 Z M 341.25 218.808594 " fill-opacity="1" fill-rule="nonzero"/><g clip-path="url(#d3e12e3eb1)"><g clip-path="url(#894fd52152)"><g clip-path="url(#7efb033b50)"><path fill="#f49a3d" d="M 364.101562 161.1875 C 364.101562 161.1875 364.101562 161.1875 364.101562 161.183594 C 363.820312 160.910156 363.429688 160.773438 363.042969 160.839844 C 362.492188 160.9375 361.949219 161.027344 361.4375 161.214844 C 359.941406 161.75 358.902344 162.941406 357.695312 164.132812 C 357.628906 163.644531 357.566406 163.304688 357.535156 162.960938 C 357.390625 161.398438 356.90625 159.925781 356.277344 158.503906 C 356.273438 158.492188 356.269531 158.484375 356.269531 158.476562 C 355.679688 157.164062 353.746094 157.300781 353.363281 158.691406 C 353.324219 158.839844 353.289062 158.988281 353.261719 159.136719 C 352.75 161.847656 352.574219 164.574219 352.882812 167.320312 C 353.085938 169.148438 353.324219 170.96875 353.515625 172.800781 C 353.546875 173.140625 353.535156 173.488281 353.519531 173.847656 C 353.503906 174.210938 353.828125 174.5 354.183594 174.429688 C 354.488281 174.371094 354.785156 174.214844 355.070312 173.960938 C 356.085938 173.054688 357.253906 172.355469 358.214844 171.367188 C 359.394531 170.152344 360.757812 169.121094 361.9375 167.902344 C 362.832031 166.976562 363.683594 165.957031 364.332031 164.851562 C 365.355469 163.089844 365.367188 162.421875 364.101562 161.1875 Z M 353.621094 160.703125 L 353.320312 165.019531 C 353.082031 163.542969 353.09375 162.101562 353.621094 160.703125 Z M 355.378906 163.703125 C 355.441406 163.054688 355.503906 162.402344 355.566406 161.753906 L 355.792969 161.777344 L 355.589844 163.722656 Z M 357.070312 164.828125 C 356.945312 163.65625 356.824219 162.488281 356.703125 161.324219 C 357.222656 162.453125 357.402344 163.617188 357.070312 164.828125 Z M 356.152344 164.578125 C 356.292969 165.757812 356.296875 166.917969 355.941406 168.0625 C 355.742188 166.886719 356.023438 165.734375 356.152344 164.578125 Z M 354.105469 173.222656 C 353.816406 172.78125 353.714844 172.289062 354.007812 171.570312 L 354.640625 173.265625 C 354.46875 173.257812 354.164062 173.320312 354.105469 173.222656 Z M 356.523438 171.191406 L 356.449219 171.164062 L 357.019531 169.59375 L 357.089844 169.621094 Z M 358.402344 169.546875 L 358.136719 169.460938 C 358.625 168.425781 359.121094 167.390625 359.609375 166.355469 L 359.714844 166.394531 C 359.277344 167.449219 358.839844 168.496094 358.402344 169.546875 Z M 360.386719 167.472656 L 360.269531 167.425781 L 360.558594 166.765625 L 360.632812 166.777344 L 360.382812 167.472656 Z M 361.074219 165.113281 L 360.910156 165.003906 L 361.886719 163.121094 L 362.074219 163.21875 C 361.742188 163.847656 361.410156 164.480469 361.074219 165.113281 Z M 361.925781 166.285156 C 362.148438 165.234375 362.761719 164.359375 363.285156 163.457031 C 363.179688 164.566406 362.636719 165.464844 361.925781 166.285156 Z M 363.933594 163.613281 L 363.847656 162.617188 C 363.820312 162.332031 363.542969 162.140625 363.269531 162.222656 L 363.015625 162.296875 C 363.167969 162.066406 363.25 161.808594 363.367188 161.792969 C 363.890625 161.714844 364.324219 162.195312 364.234375 162.742188 C 364.191406 163.019531 364.050781 163.28125 363.933594 163.613281 Z M 363.933594 163.613281 " fill-opacity="1" fill-rule="nonzero"/></g></g></g><g clip-path="url(#6343588524)"><g clip-path="url(#ed6af7b2ea)"><g clip-path="url(#bf1ae8a80a)"><path fill="#f49a3d" d="M 323.078125 141.703125 C 323.078125 141.703125 323.074219 141.703125 323.074219 141.699219 C 322.691406 141.605469 322.289062 141.691406 321.992188 141.949219 C 321.566406 142.316406 321.148438 142.671875 320.804688 143.09375 C 319.800781 144.324219 319.519531 145.882812 319.097656 147.523438 C 318.789062 147.140625 318.5625 146.878906 318.355469 146.601562 C 317.429688 145.332031 316.257812 144.324219 314.984375 143.421875 C 314.976562 143.417969 314.96875 143.414062 314.964844 143.40625 C 313.78125 142.582031 312.199219 143.695312 312.585938 145.085938 C 312.625 145.230469 312.671875 145.378906 312.726562 145.519531 C 313.683594 148.105469 314.933594 150.535156 316.609375 152.730469 C 317.722656 154.195312 318.867188 155.636719 319.972656 157.105469 C 320.175781 157.382812 320.34375 157.683594 320.515625 158 C 320.6875 158.320312 321.117188 158.402344 321.382812 158.160156 C 321.617188 157.953125 321.789062 157.664062 321.902344 157.300781 C 322.308594 156.003906 322.949219 154.796875 323.265625 153.457031 C 323.65625 151.808594 324.292969 150.222656 324.675781 148.574219 C 324.964844 147.316406 325.171875 146.007812 325.15625 144.722656 C 325.128906 142.6875 324.800781 142.109375 323.078125 141.703125 Z M 313.839844 146.679688 L 315.800781 150.535156 C 314.839844 149.390625 314.109375 148.148438 313.839844 146.679688 Z M 316.890625 148.34375 C 316.609375 147.757812 316.328125 147.167969 316.046875 146.578125 L 316.253906 146.480469 L 317.082031 148.253906 Z M 318.917969 148.441406 C 318.210938 147.5 317.503906 146.558594 316.800781 145.625 C 317.828125 146.328125 318.582031 147.230469 318.917969 148.441406 Z M 318.003906 148.699219 C 318.730469 149.640625 319.332031 150.628906 319.617188 151.792969 C 318.839844 150.886719 318.488281 149.753906 318.003906 148.699219 Z M 320.699219 157.164062 C 320.21875 156.933594 319.882812 156.566406 319.761719 155.796875 L 321.175781 156.925781 C 321.023438 157.007812 320.796875 157.214844 320.699219 157.164062 Z M 321.722656 154.179688 L 321.648438 154.191406 L 321.328125 152.554688 L 321.402344 152.539062 Z M 322.492188 151.800781 L 322.21875 151.863281 C 322.105469 150.722656 321.996094 149.582031 321.882812 148.441406 L 321.992188 148.425781 C 322.160156 149.550781 322.324219 150.675781 322.492188 151.800781 Z M 323.125 149.003906 L 322.996094 149.023438 L 322.90625 148.304688 L 322.980469 148.277344 L 323.121094 149.003906 Z M 322.5 146.625 L 322.300781 146.617188 L 322.171875 144.496094 L 322.382812 144.484375 C 322.421875 145.195312 322.460938 145.90625 322.5 146.625 Z M 323.832031 147.191406 C 323.484375 146.175781 323.5625 145.109375 323.542969 144.066406 C 324.027344 145.074219 324.019531 146.121094 323.832031 147.191406 Z M 324.179688 143.867188 L 323.59375 143.058594 C 323.425781 142.824219 323.085938 142.804688 322.894531 143.015625 L 322.71875 143.207031 C 322.730469 142.933594 322.664062 142.671875 322.757812 142.597656 C 323.167969 142.261719 323.789062 142.449219 323.992188 142.964844 C 324.097656 143.226562 324.109375 143.523438 324.179688 143.867188 Z M 324.179688 143.867188 " fill-opacity="1" fill-rule="nonzero"/></g></g></g><g clip-path="url(#e1684ddcba)"><g clip-path="url(#51327bc1c5)"><g clip-path="url(#3a8aaf21e3)"><path fill="#f49a3d" d="M 281.121094 160.378906 C 281.121094 160.378906 281.117188 160.378906 281.117188 160.378906 C 280.722656 160.394531 280.359375 160.589844 280.144531 160.917969 C 279.839844 161.386719 279.535156 161.847656 279.324219 162.347656 C 278.699219 163.808594 278.863281 165.382812 278.910156 167.074219 C 278.511719 166.792969 278.21875 166.605469 277.945312 166.394531 C 276.703125 165.433594 275.296875 164.789062 273.824219 164.277344 C 273.816406 164.277344 273.808594 164.273438 273.800781 164.269531 C 272.4375 163.804688 271.222656 165.3125 271.980469 166.542969 C 272.058594 166.671875 272.144531 166.796875 272.238281 166.921875 C 273.871094 169.140625 275.75 171.125 277.96875 172.769531 C 279.445312 173.867188 280.941406 174.933594 282.414062 176.039062 C 282.683594 176.25 282.929688 176.492188 283.183594 176.75 C 283.4375 177.007812 283.871094 176.96875 284.0625 176.660156 C 284.226562 176.398438 284.3125 176.074219 284.320312 175.691406 C 284.351562 174.332031 284.632812 172.996094 284.566406 171.621094 C 284.480469 169.929688 284.652344 168.226562 284.5625 166.539062 C 284.492188 165.25 284.328125 163.933594 283.957031 162.707031 C 283.367188 160.753906 282.886719 160.292969 281.121094 160.378906 Z M 273.628906 167.722656 L 276.582031 170.882812 C 275.339844 170.050781 274.292969 169.058594 273.628906 167.722656 Z M 277.019531 168.480469 C 276.589844 167.992188 276.152344 167.503906 275.722656 167.015625 L 275.890625 166.863281 L 277.179688 168.335938 Z M 278.996094 168.007812 C 278.054688 167.300781 277.117188 166.59375 276.179688 165.886719 C 277.359375 166.28125 278.335938 166.9375 278.996094 168.007812 Z M 278.191406 168.511719 C 279.148438 169.210938 280.003906 169.996094 280.59375 171.035156 C 279.597656 170.382812 278.949219 169.390625 278.191406 168.511719 Z M 283.125 175.894531 C 282.601562 175.804688 282.175781 175.546875 281.847656 174.839844 L 283.519531 175.53125 C 283.394531 175.652344 283.234375 175.917969 283.125 175.894531 Z M 283.28125 172.742188 L 283.214844 172.777344 L 282.453125 171.289062 L 282.519531 171.257812 Z M 283.359375 170.246094 L 283.117188 170.382812 C 282.691406 169.316406 282.269531 168.25 281.84375 167.1875 L 281.945312 167.140625 C 282.417969 168.175781 282.886719 169.210938 283.359375 170.246094 Z M 283.191406 167.382812 L 283.074219 167.433594 L 282.789062 166.769531 L 282.851562 166.726562 Z M 281.933594 165.269531 L 281.738281 165.316406 L 281.027344 163.316406 L 281.226562 163.246094 C 281.460938 163.917969 281.695312 164.589844 281.933594 165.269531 Z M 283.367188 165.445312 C 282.753906 164.566406 282.53125 163.519531 282.226562 162.519531 C 282.96875 163.355469 283.253906 164.363281 283.367188 165.445312 Z M 282.78125 162.152344 L 281.996094 161.539062 C 281.765625 161.363281 281.4375 161.4375 281.308594 161.695312 L 281.191406 161.925781 C 281.128906 161.660156 280.996094 161.425781 281.0625 161.328125 C 281.363281 160.890625 282.011719 160.902344 282.351562 161.339844 C 282.523438 161.5625 282.621094 161.839844 282.78125 162.152344 Z M 282.78125 162.152344 " fill-opacity="1" fill-rule="nonzero"/></g></g></g></svg>